<svg width="334" height="69" viewBox="0 0 152 28" fill="none" xmlns="http://www.w3.org/2000/svg"><g clip-path="url(#clip0_200_5478)"><path d="M26.8839 12.5702V15.9821L31.395 15.9588V17.5956H24.6641L23.0581 16.0048V11.9705L24.5457 10.4489H31.5835L32.8588 11.6477L35.9999 8.5586L33.8271 6.48389H22.4675L18.3817 10.4716V17.5024L22.4913 21.5134H30.4736L32.0326 19.9918L33.6148 21.5008H35.8346V12.5702H26.8839ZM35.4168 21.1314H33.7808L32.0125 19.4645L30.3264 21.127L22.666 21.0742L18.7575 17.3445V10.6314L22.6134 6.86397H33.6655L35.4475 8.55922L32.8425 11.1134L31.7363 10.0663L24.3841 10.0751L22.6654 11.81V16.1526L24.4706 17.9612L31.7532 17.9712H31.7695V15.5706H27.2879L27.266 12.9572H35.4156V21.1308L35.4168 21.1314Z" fill="#E5E5E5"></path><path d="M15.1888 14.5392C15.3297 20.3499 16.481 24.9046 18.2461 26.3545C17.8878 26.698 17.5063 26.8956 17.1061 26.9158C14.8174 27.0309 13.0548 21.6966 12.8844 14.6557C12.7134 7.61474 14.5687 1.34782 16.8568 1.23266C17.257 1.21253 17.6473 1.3711 18.0212 1.67819C16.3306 3.30171 15.0479 8.72981 15.1888 14.5399V14.5392Z" fill="#939598"></path><g opacity="0.71"><path d="M14.1359 14.0735C14.1359 14.0735 14.2655 1.41259 18.1421 1.41699C19.8276 1.41888 20.8154 4.38904 21.3879 7.52345C22.2491 12.2373 22.1063 17.084 21.024 21.7507C20.2723 24.9914 19.1248 27.8804 17.5245 26.6502C13.9743 23.9216 14.1359 14.0735 14.1359 14.0735Z" fill="url(#paint0_radial_200_5478)"></path></g><path d="M16.9154 1.23047C14.683 1.23047 12.8729 6.98013 12.8729 14.0726C12.8729 21.1652 14.6824 26.9148 16.9154 26.9148C19.1484 26.9148 20.9579 21.1652 20.9579 14.0726C20.9579 6.98013 19.1477 1.23047 16.9154 1.23047ZM16.6918 26.1075C14.9286 26.1075 13.4992 20.7196 13.4992 14.0739C13.4992 7.42817 14.9286 2.04034 16.6918 2.04034C18.455 2.04034 19.8843 7.42817 19.8843 14.0739C19.8843 20.7196 18.455 26.1075 16.6918 26.1075Z" fill="#D1D3D4"></path><path d="M0 21.5087V6.48486H13.3584L16.6918 9.74827V13.7863L14.6775 15.688L16.668 17.6362V21.51H11.7756V19.2798L10.5047 18.0358H4.86869V21.51H0V21.5087ZM4.86869 13.809H10.5047L11.6797 12.6819V11.4379L10.96 10.7803H4.86869V13.8083V13.809Z" fill="#E5E5E5"></path><path d="M0 21.5087V6.48486H13.3584L16.6918 9.74827V13.7863L14.6775 15.688L16.668 17.6362V21.51H11.7756V19.2798L10.5047 18.0358H4.86869V21.51H0V21.5087ZM4.86869 13.809H10.5047L11.6797 12.6819V11.4379L10.96 10.7803H4.86869V13.8083V13.809Z" fill="#E5E5E5"></path><path d="M0 6.48486L0.612579 7.07764H12.8867L13.3584 6.48486H0Z" fill="white"></path><path d="M16.6918 9.74764L15.994 10.0201L12.8867 7.07764L13.3583 6.48486L16.6918 9.74764Z" fill="#F1F2F2"></path><path d="M16.6922 13.7856L15.9274 13.3892L15.9944 10.02L16.6922 9.74756V13.7856Z" fill="#D1D3D4"></path><path d="M14.6774 15.6873H13.3583L15.927 13.3892L16.6918 13.7856L14.6774 15.6873Z" fill="#A7A9AC"></path><path d="M16.668 17.6357L15.793 18.2411L13.3583 15.6875H14.6774L16.668 17.6357Z" fill="#F1F2F2"></path><path d="M16.6683 21.5089L15.7933 20.8016V18.2411L16.6683 17.6357V21.5089Z" fill="#E5E5E5"></path><path d="M11.7758 21.5086L12.4842 20.7793L15.7933 20.8013L16.6683 21.5086H11.7758Z" fill="#A7A9AC"></path><path d="M11.7758 19.2788L12.4842 18.7578V20.7797L11.7758 21.509V19.2788Z" fill="#D1D3D4"></path><path d="M10.504 18.0345L11.0089 17.3423L12.484 18.7575L11.7755 19.2786L10.504 18.0345Z" fill="#BCBEC0"></path><path d="M4.86863 18.0343L4.1076 17.2817L11.0088 17.3421L10.504 18.0343H4.86863Z" fill="#A7A9AC"></path><path d="M4.86863 21.5086L4.1076 20.844V17.2817L4.86863 18.0343V21.5086Z" fill="#E5E5E5"></path><path d="M0 21.5087L0.682105 20.8442H4.10766L4.86869 21.5087H0Z" fill="#A7A9AC"></path><path d="M0.612579 7.07764L0.682105 20.8442L0 21.5087V6.48486L0.612579 7.07764Z" fill="#D1D3D4"></path><path d="M4.86865 10.7808L4.03748 10.042L11.4943 10.02L10.96 10.7808H4.86865Z" fill="#A7A9AC"></path><path d="M4.86865 13.8091L4.03748 14.5384H11.0089L10.504 13.8091H4.86865Z" fill="white"></path><path d="M4.03748 10.042V14.5381L4.86865 13.8088V10.7808L4.03748 10.042Z" fill="#E5E5E5"></path><path d="M11.6796 11.4378L12.477 11.1848L11.4942 10.02L10.96 10.7808L11.6796 11.4378Z" fill="#BCBEC0"></path><path d="M11.6799 12.6821L12.4772 12.9741V11.1851L11.6799 11.438V12.6821Z" fill="#D1D3D4"></path><path d="M10.504 13.8092L11.6797 12.6821L12.4771 12.9741L11.0089 14.5385L10.504 13.8092Z" fill="#F1F2F2"></path><path d="M18.4142 25.7914C18.4142 25.7914 18.418 25.787 18.4205 25.7839C19.9043 23.8426 20.9497 19.3263 20.9572 14.058C20.9648 8.75576 19.92 4.21053 18.4261 2.28118C18.3697 2.22455 18.3146 2.15784 18.2608 2.08044C18.1693 1.97599 18.0766 1.87971 17.982 1.79538C17.9733 1.80294 17.9908 1.78783 17.982 1.79538C17.1628 0.978589 16.1656 1.44991 16.1656 1.44991C18.6253 0.0233546 20.3209 1.82999 20.3209 1.82999C20.3209 1.82999 20.3202 1.83062 20.3196 1.83125C22.0296 3.40569 23.271 8.28758 23.2629 14.0656C23.2535 20.2576 21.8122 25.4132 19.9081 26.5673V26.5686C19.9081 26.5686 18.361 27.5622 16.4399 26.8284C16.8038 26.9191 17.5705 26.8599 18.4136 25.792L18.4142 25.7914Z" fill="white"></path><path d="M50.9999 11.9286V4.96826H56.5103L57.8745 6.34957V8.11138L56.8462 9.13372L57.8424 10.1238V11.9294H56.5539V10.5696L55.7421 9.75404H52.267V11.9294H51.0007L50.9999 11.9286ZM52.2662 8.61102H55.72L56.5646 7.77393V6.75159L55.948 6.1428H52.267V8.61179L52.2662 8.61102Z" fill="#E1E2E5"></path><path d="M68.8078 11.9285V9.95994H64.4236V11.9285H63.1788V7.00207L65.214 4.91357H68.0289L70.0641 6.99131V11.9293H68.8085L68.8078 11.9285ZM67.4543 6.09887H65.7764L64.4229 7.43637V8.8615H68.807V7.4479L67.4535 6.09964L67.4543 6.09887Z" fill="#E1E2E5"></path><path d="M76.7324 4.96826V11.9294H75.4769V4.96826H76.7324Z" fill="#E1E2E5"></path><path d="M89.7347 4.96826V11.5919L88.7607 12.4298L83.5211 6.80694V11.9294H82.3084V4.96826H83.6397L88.5219 10.2544V4.96826H89.7347Z" fill="#E1E2E5"></path><path d="M102.758 11.9287V6.83848L99.6508 10.3736L96.5329 6.85001V11.9294H95.3095V5.43564L96.1542 4.6416L99.6615 8.55724L103.158 4.6416L104.014 5.44641V11.9287H102.758Z" fill="#E1E2E5"></path><path d="M115.055 11.9285V9.95994H110.671V11.9285H109.426V7.00207L111.462 4.91357H114.277L116.312 6.99131V11.9293H115.056L115.055 11.9285ZM113.702 6.09887H112.024L110.671 7.43637V8.8615H115.055V7.4479L113.701 6.09964L113.702 6.09887Z" fill="#E1E2E5"></path><path d="M128.361 4.96826V6.36033L126.109 8.42654L128.361 10.5473V11.9286H127.072V11.037L124.983 9.04686H122.98V11.9294H121.724V4.96826H122.98V7.83927H124.993L127.072 5.9145V4.96826H128.361Z" fill="#E1E2E5"></path><path d="M139.543 4.96826V6.15356H135.029V7.79622H139.143V9.01458H135.029V10.7441H139.587V11.9294H133.784V4.96826H139.543Z" fill="#E1E2E5"></path><path d="M144.859 11.9286V4.96826H150.369L151.733 6.34957V8.11138L150.705 9.13372L151.701 10.1238V11.9294H150.413V10.5696L149.601 9.75404H146.126V11.9294H144.859L144.859 11.9286ZM146.125 8.61102H149.579L150.423 7.77393V6.75159L149.807 6.1428H146.126V8.61179L146.125 8.61102Z" fill="#E1E2E5"></path><path d="M57.7659 18.2568L56.9648 17.4628H53.2624L52.3098 18.4306V21.2147L53.2953 22.2048H56.8026L57.3114 21.7043V20.5513L55.0597 20.5621V19.5182H58.5563V23.314H57.9281L57.4514 22.6506L56.7697 23.3578H52.6886L50.9999 21.6505V17.9963L52.6778 16.3105H57.6037L58.6427 17.3544L57.7659 18.2568Z" fill="#E1E2E5"></path><path d="M69.566 23.314V21.3455H65.1819V23.314H63.937V18.3868L65.9722 16.2983H68.7871L70.8223 18.3761V23.314H69.5668H69.566ZM68.2125 17.4844H66.5346L65.1811 18.8219V20.247H69.5652V18.8334L68.2117 17.4852L68.2125 17.4844Z" fill="#E1E2E5"></path><path d="M83.6827 23.3141V18.2239L80.5756 21.7591L77.4577 18.2355V23.3149H76.2343V16.8219L77.079 16.0278L80.5863 19.9435L84.0829 16.0278L84.9383 16.8326V23.3149H83.6827V23.3141Z" fill="#E1E2E5"></path><path d="M96.273 16.3535V17.5388H91.7588V19.1815H95.8728V20.3998H91.7588V22.1294H96.3166V23.3147H90.5139V16.3535H96.2737H96.273Z" fill="#E1E2E5"></path><path d="M101.621 21.4763L102.357 22.1943H105.345L105.561 21.9006L100.798 18.0065L102.075 16.3101H106.157L107.12 17.3001L106.243 18.181L105.539 17.4738H102.789L102.551 17.7782L107.347 21.6393L106.026 23.3581H101.75L100.743 22.3465L101.62 21.4763H101.621Z" fill="#E1E2E5"></path></g><defs><radialGradient id="paint0_radial_200_5478" cx="0" cy="0" r="1" gradientUnits="userSpaceOnUse" gradientTransform="translate(18.076 14.6222) rotate(-90) scale(9.41204 1.93831)"><stop offset="0.28" stop-color="white"></stop><stop offset="0.35" stop-color="#FAFAFA" stop-opacity="0.98"></stop><stop offset="0.44" stop-color="#ECECEC" stop-opacity="0.92"></stop><stop offset="0.54" stop-color="#D6D5D5" stop-opacity="0.82"></stop><stop offset="0.65" stop-color="#B7B6B6" stop-opacity="0.67"></stop><stop offset="0.76" stop-color="#8F8D8D" stop-opacity="0.49"></stop><stop offset="0.87" stop-color="#5E5B5C" stop-opacity="0.27"></stop><stop offset="0.99" stop-color="#262223" stop-opacity="0.01"></stop><stop offset="1" stop-color="#231F20" stop-opacity="0"></stop></radialGradient><clipPath id="clip0_200_5478"><rect width="151.733" height="26.1972" fill="white" transform="translate(0 0.901367)"></rect></clipPath></defs></svg>